<svg width="34" height="34" viewBox="0 0 34 34" fill="none" xmlns="http://www.w3.org/2000/svg">
<path d="M2.92976 16.0449C2.92908 18.6246 3.57392 21.1434 4.80006 23.3636L2.8125 30.9492L10.239 28.9137C12.2931 30.0826 14.5946 30.6951 16.9333 30.6952H16.9394C24.66 30.6952 30.9448 24.1282 30.9481 16.0564C30.9496 12.1451 29.4937 8.46714 26.8485 5.70004C24.2039 2.93318 20.6865 1.40861 16.9389 1.40682C9.21736 1.40682 2.93295 7.97351 2.92976 16.0449Z" fill="url(#paint0_linear_306_4462)"/>
<path d="M1.53561 16.7421C1.53476 19.4449 2.24405 22.0835 3.59252 24.4092L1.40625 32.356L9.57525 30.2236C11.8261 31.4454 14.3603 32.0895 16.939 32.0905H16.9456C25.4383 32.0905 32.3518 25.21 32.3554 16.7544C32.3569 12.6565 30.7552 8.80305 27.846 5.90428C24.9364 3.00587 21.0678 1.40851 16.9456 1.40682C8.45153 1.40682 1.53899 8.28636 1.53561 16.7421ZM6.40043 24.0087L6.09541 23.5267C4.8132 21.497 4.13642 19.1515 4.13739 16.743C4.14017 9.71487 9.88559 3.99688 16.9505 3.99688C20.3718 3.99832 23.5871 5.32609 26.0055 7.73513C28.4238 10.1444 29.7545 13.3471 29.7536 16.7534C29.7505 23.7816 24.0049 29.5003 16.9456 29.5003H16.9405C14.642 29.4991 12.3876 28.8846 10.4216 27.7232L9.95378 27.447L5.10612 28.7123L6.40043 24.0086V24.0087Z" fill="url(#paint1_linear_306_4462)"/>
<path d="M12.7313 9.15959C12.4201 8.47605 12.0927 8.46226 11.7968 8.45027C11.5545 8.43996 11.2775 8.44073 11.0007 8.44073C10.7237 8.44073 10.2737 8.54372 9.89328 8.95426C9.51248 9.36518 8.43945 10.3582 8.43945 12.3779C8.43945 14.3977 9.92784 16.3496 10.1353 16.6238C10.3431 16.8974 13.0087 21.1747 17.2304 22.8203C20.739 24.1877 21.453 23.9157 22.2145 23.8472C22.9761 23.7789 24.6719 22.8544 25.0179 21.8958C25.3642 20.9373 25.3642 20.1157 25.2603 19.944C25.1565 19.773 24.8795 19.6703 24.4642 19.4651C24.0487 19.2597 22.0067 18.2666 21.626 18.1296C21.2452 17.9927 20.9684 17.9243 20.6914 18.3354C20.4144 18.7458 19.619 19.6703 19.3766 19.944C19.1344 20.2185 18.892 20.2526 18.4767 20.0473C18.0611 19.8413 16.7235 19.4083 15.1365 18.0099C13.9017 16.9218 13.0682 15.578 12.8259 15.167C12.5835 14.7566 12.7999 14.5341 13.0082 14.3295C13.1948 14.1456 13.4237 13.8502 13.6315 13.6105C13.8386 13.3708 13.9077 13.1997 14.0462 12.926C14.1849 12.6519 14.1155 12.4122 14.0118 12.2069C13.9077 12.0015 13.1006 9.97126 12.7313 9.15959Z" fill="white"/>
<defs>
<linearGradient id="paint0_linear_306_4462" x1="1409.59" y1="2955.64" x2="1409.59" y2="1.40682" gradientUnits="userSpaceOnUse">
<stop stop-color="#1FAF38"/>
<stop offset="1" stop-color="#60D669"/>
</linearGradient>
<linearGradient id="paint1_linear_306_4462" x1="1548.86" y1="3096.32" x2="1548.86" y2="1.40682" gradientUnits="userSpaceOnUse">
<stop stop-color="#F9F9F9"/>
<stop offset="1" stop-color="white"/>
</linearGradient>
</defs>
</svg>
